first trial
nRows=4
nColumns=165

# SIMM Motion File Header:
name first trial
datacolumns 165
datarows 4
otherdata 1
range 2.25000000 2.30000000
endheader
time	pelvis_tx	pelvis_ty	pelvis_tz	pelvis_tilt	pelvis_list	pelvis_rotation	hip_flexion_r	hip_adduction_r	hip_rotation_r	knee_angle_r	ankle_angle_r	subtalar_angle_r	mtp_angle_r	hip_flexion_l	hip_adduction_l	hip_rotation_l	knee_angle_l	ankle_angle_l	subtalar_angle_l	mtp_angle_l	lumbar_extension	lumbar_bending	lumbar_rotation	R.ASIS_tx	R.ASIS_ty	R.ASIS_tz	L.ASIS_tx	L.ASIS_ty	L.ASIS_tz	V.Sacral_tx	V.Sacral_ty	V.Sacral_tz	R.Thigh.Upper_tx	R.Thigh.Upper_ty	R.Thigh.Upper_tz	R.Thigh.Front_tx	R.Thigh.Front_ty	R.Thigh.Front_tz	R.Thigh.Rear_tx	R.Thigh.Rear_ty	R.Thigh.Rear_tz	L.Thigh.Upper_tx	L.Thigh.Upper_ty	L.Thigh.Upper_tz	L.Thigh.Front_tx	L.Thigh.Front_ty	L.Thigh.Front_tz	L.Thigh.Rear_tx	L.Thigh.Rear_ty	L.Thigh.Rear_tz	R.Shank.Upper_tx	R.Shank.Upper_ty	R.Shank.Upper_tz	R.Shank.Front_tx	R.Shank.Front_ty	R.Shank.Front_tz	R.Shank.Rear_tx	R.Shank.Rear_ty	R.Shank.Rear_tz	L.Shank.Upper_tx	L.Shank.Upper_ty	L.Shank.Upper_tz	L.Shank.Front_tx	L.Shank.Front_ty	L.Shank.Front_tz	L.Shank.Rear_tx	L.Shank.Rear_ty	L.Shank.Rear_tz	R.Heel_tx	R.Heel_ty	R.Heel_tz	R.Midfoot.Sup_tx	R.Midfoot.Sup_ty	R.Midfoot.Sup_tz	R.Midfoot.Lat_tx	R.Midfoot.Lat_ty	R.Midfoot.Lat_tz	R.Toe.Tip_tx	R.Toe.Tip_ty	R.Toe.Tip_tz	L.Heel_tx	L.Heel_ty	L.Heel_tz	L.Midfoot.Sup_tx	L.Midfoot.Sup_ty	L.Midfoot.Sup_tz	L.Midfoot.Lat_tx	L.Midfoot.Lat_ty	L.Midfoot.Lat_tz	L.Toe.Tip_tx	L.Toe.Tip_ty	L.Toe.Tip_tz	Sternum_tx	Sternum_ty	Sternum_tz	R.Acromium_tx	R.Acromium_ty	R.Acromium_tz	L.Acromium_tx	L.Acromium_ty	L.Acromium_tz	R.Bicep_tx	R.Bicep_ty	R.Bicep_tz	L.Bicep_tx	L.Bicep_ty	L.Bicep_tz	R.Elbow_tx	R.Elbow_ty	R.Elbow_tz	L.Elbow_tx	L.Elbow_ty	L.Elbow_tz	R.Wrist.Med_tx	R.Wrist.Med_ty	R.Wrist.Med_tz	R.Wrist.Lat_tx	R.Wrist.Lat_ty	R.Wrist.Lat_tz	L.Wrist.Med_tx	L.Wrist.Med_ty	L.Wrist.Med_tz	L.Wrist.Lat_tx	L.Wrist.Lat_ty	L.Wrist.Lat_tz	R.Toe.Lat_tx	R.Toe.Lat_ty	R.Toe.Lat_tz	R.Toe.Med_tx	R.Toe.Med_ty	R.Toe.Med_tz	L.Toe.Lat_tx	L.Toe.Lat_ty	L.Toe.Lat_tz	L.Toe.Med_tx	L.Toe.Med_ty	L.Toe.Med_tz	R.Temple_tx	R.Temple_ty	R.Temple_tz	L.Temple_tx	L.Temple_ty	L.Temple_tz	Top.Head_tx	Top.Head_ty	Top.Head_tz	ground_force_vx	ground_force_vy	ground_force_vz	ground_force_px	ground_force_py	ground_force_pz	ground_force_vx	ground_force_vy	ground_force_vz	ground_force_px	ground_force_py	ground_force_pz	ground_torque_x	ground_torque_y	ground_torque_z	ground_torque_x	ground_torque_y	ground_torque_z
      2.25000000	      0.59270437	      1.04258877	      0.04805177	      5.84620766	     -1.53019257	     -0.72329096	     -5.23925307	      4.10071541	     -0.03209827	    -10.19894823	      8.31076906	     -0.00007856	     -0.00000022	     20.83885378	     -4.60088881	     -3.92997792	    -52.93676237	      1.79225662	     -0.00024859	     -0.00000168	    -14.61573533	      1.95683081	      0.95738105	      0.61180194	      1.07947620	      0.17845892	      0.61533734	      1.07300098	     -0.08188823	      0.41466779	      1.07326367	      0.05191214	      0.57405920	      0.75502679	      0.21507314	      0.63273572	      0.69433197	      0.12076545	      0.56187366	      0.63159113	      0.20133493	      0.66050439	      0.78125378	     -0.14869798	      0.76207233	      0.77974127	     -0.09276601	      0.70577441	      0.68034650	     -0.14193011	      0.48792807	      0.45976178	      0.18351846	      0.56020685	      0.41859784	      0.12918129	      0.49189563	      0.37250192	      0.18660310	      0.69864014	      0.49222281	     -0.13948447	      0.72768774	      0.42521259	     -0.09224033	      0.66507745	      0.46154941	     -0.14710645	      0.38420050	      0.07159727	      0.09250599	      0.52774481	      0.07841982	      0.06126684	      0.51826874	      0.06318568	      0.16801549	      0.67111450	      0.04811859	      0.10493744	      0.47716324	      0.18296864	     -0.04471299	      0.63223694	      0.11758363	     -0.03218107	      0.60917334	      0.11806179	     -0.12714815	      0.72319543	      0.05302049	     -0.06773428	      0.63925549	      1.39260388	      0.03915080	      0.54433008	      1.47447009	      0.25445100	      0.55543927	      1.50349463	     -0.16512233	      0.57834753	      1.27156152	      0.29772464	      0.55234698	      1.26641370	     -0.20534062	      0.55181995	      1.16373340	      0.32845901	      0.49080743	      1.17719556	     -0.24220164	      0.74583862	      0.97867932	      0.29641010	      0.71401300	      0.95186035	      0.34687262	      0.59433862	      0.94576978	     -0.20927626	      0.54632648	      0.93718127	     -0.26703918	      0.60653558	      0.03787560	      0.18336447	      0.61458990	      0.04656709	      0.07376517	      0.65422614	      0.06949045	     -0.13938370	      0.68046088	      0.07066776	     -0.03944520	      0.68198438	      1.63997070	      0.12927032	      0.68940656	      1.64788391	     -0.00973777	      0.62916925	      1.80884473	      0.06939425	    -20.68175910	    588.41475054	    -33.09299154	      0.57382710	     -0.00750000	      0.12930392	      0.00000000	      0.00000000	      0.00000000	      0.54052773	     -0.00750000	     -0.04999920	      0.00000000	      2.74963895	      0.00000000	      0.00000000	      0.00000000	      0.00000000
      2.26700000	      0.59090622	      1.04167407	      0.04880660	      5.90067858	     -1.67588782	     -0.97994215	     -6.81653144	      4.26213540	      0.36812702	     -9.36374960	      8.86949090	     -0.00007652	      0.00000069	     21.07963727	     -4.91208852	     -4.69482080	    -47.43079986	      1.38606252	     -0.00035740	     -0.00000087	    -14.80032515	      1.91510422	      1.29309036	      0.60897040	      1.07824756	      0.17896291	      0.61392847	      1.07240247	     -0.08148996	      0.41271512	      1.07289722	      0.05188395	      0.56423773	      0.75313208	      0.21506667	      0.62409833	      0.69236261	      0.12016074	      0.55212512	      0.63122852	      0.20122427	      0.66067767	      0.78128326	     -0.14749791	      0.76149054	      0.78081445	     -0.09091637	      0.70594904	      0.68053528	     -0.14037601	      0.47296857	      0.45956537	      0.18303618	      0.54512799	      0.41778915	      0.12921146	      0.47667596	      0.37242624	      0.18665109	      0.70710767	      0.48994949	     -0.13770274	      0.74233807	      0.42499640	     -0.09122074	      0.67550262	      0.45551920	     -0.14494040	      0.36513367	      0.07193780	      0.09210641	      0.50831943	      0.07802366	      0.06124634	      0.49928665	      0.06310627	      0.16783954	      0.65193878	      0.04795463	      0.10485195	      0.51566058	      0.15881934	     -0.04379874	      0.67693353	      0.10889902	     -0.03386155	      0.65191046	      0.10793674	     -0.12859399	      0.77297870	      0.05365126	     -0.07133849	      0.63785486	      1.39077637	      0.03832900	      0.54359497	      1.47391174	      0.25392381	      0.55457532	      1.50180933	     -0.16553134	      0.57834479	      1.27131921	      0.29826611	      0.54852167	      1.26530432	     -0.20549467	      0.55320996	      1.16347961	      0.32930856	      0.48588809	      1.17636841	     -0.24246968	      0.75199042	      0.98520636	      0.29542328	      0.72271985	      0.95601398	      0.34548358	      0.59091656	      0.94553595	     -0.20891780	      0.54251941	      0.93652576	     -0.26500732	      0.58739874	      0.03781001	      0.18304843	      0.59609369	      0.04645037	      0.07390607	      0.70171558	      0.06450496	     -0.14193100	      0.72865985	      0.06640482	     -0.04237014	      0.68140985	      1.64001184	      0.12860332	      0.68850250	      1.64736963	     -0.01144483	      0.62672876	      1.80804102	      0.06805214	    -16.69687250	    602.80271683	    -34.07626020	      0.55940890	     -0.00750000	      0.12853437	      0.00000000	      0.00000000	      0.00000000	      0.56585985	     -0.00750000	     -0.04928553	      0.00000000	      3.03613469	      0.00000000	      0.00000000	      0.00000000	      0.00000000
      2.28300000	      0.58891404	      1.03963762	      0.04965635	      5.66865702	     -2.01342273	     -1.25005934	     -7.92388929	      4.62477364	      0.78724937	     -8.86978840	      9.56702521	     -0.00008014	      0.00000065	     21.37116502	     -5.41984829	     -5.60180681	    -41.44549656	      0.80170330	     -0.00044634	     -0.00000068	    -14.65651477	      2.07948184	      1.34614880	      0.60603601	      1.07608765	      0.17928732	      0.61233105	      1.07015601	     -0.08082956	      0.41088736	      1.07212085	      0.05164067	      0.55559985	      0.75197070	      0.21525218	      0.61542719	      0.69004175	      0.12036703	      0.54156390	      0.63049890	      0.20100772	      0.65900128	      0.77991418	     -0.14605449	      0.75910504	      0.78001086	     -0.08816293	      0.70404028	      0.67959973	     -0.13864233	      0.45936865	      0.45954785	      0.18349388	      0.53055872	      0.41675253	      0.12924686	      0.46211258	      0.37294342	      0.18626808	      0.71168591	      0.48602756	     -0.13508934	      0.75503961	      0.42441193	     -0.09048335	      0.68423547	      0.44842291	     -0.14247594	      0.34598962	      0.07230709	      0.09166431	      0.48887509	      0.07759753	      0.06125126	      0.48038220	      0.06309732	      0.16768889	      0.63276904	      0.04767239	      0.10483079	      0.55595734	      0.13612547	     -0.04270674	      0.72204608	      0.10242985	     -0.03579554	      0.69484473	      0.09978276	     -0.13017935	      0.82220715	      0.05698893	     -0.07549876	      0.63791504	      1.38944556	      0.03785111	      0.54042487	      1.47267676	      0.25381245	      0.55408264	      1.49913538	     -0.16586241	      0.57825134	      1.27081580	      0.29832947	      0.54534174	      1.26267676	     -0.20605476	      0.55423920	      1.16273450	      0.32987473	      0.48220380	      1.17458850	     -0.24189680	      0.75735706	      0.98971741	      0.29289508	      0.72899091	      0.95989160	      0.34379257	      0.58894922	      0.94517328	     -0.20897006	      0.53999158	      0.93503699	     -0.26487030	      0.56764368	      0.03863443	      0.18302437	      0.57731165	      0.04614083	      0.07382318	      0.74888837	      0.06191560	     -0.14486655	      0.77682428	      0.06468627	     -0.04573317	      0.68023730	      1.63885535	      0.12691311	      0.68744556	      1.64659167	     -0.01220866	      0.62536963	      1.80707336	      0.06596484	    -11.70364658	    618.34887035	    -35.59213870	      0.54545269	     -0.00750000	      0.12827666	      0.00000000	      0.00000000	      0.00000000	      0.58949545	     -0.00750000	     -0.04859771	      0.00000000	      3.64862623	      0.00000000	      0.00000000	      0.00000000	      0.00000000
      2.30000000	      0.58763925	      1.03754312	      0.05012213	      5.67671416	     -2.41879351	     -1.31822072	     -9.42123923	      5.05550108	      1.02545979	     -8.20224357	     10.17219948	     -0.00008364	     -0.00000017	     21.13247904	     -5.82188359	     -6.39068156	    -35.05441626	      0.07230907	     -0.00050446	     -0.00000109	    -14.82129369	      2.33971087	      1.48585949	      0.60463660	      1.07447156	      0.17946716	      0.61066632	      1.06793665	     -0.08037424	      0.40927338	      1.07096069	      0.05117189	      0.54789801	      0.75094342	      0.21526643	      0.60798260	      0.68781531	      0.12077934	      0.53144421	      0.62933087	      0.20061140	      0.65566602	      0.77714075	     -0.14439644	      0.75521497	      0.77762183	     -0.08527608	      0.70180804	      0.67736981	     -0.13690012	      0.44522464	      0.45994360	      0.18323871	      0.51734912	      0.41634711	      0.12791916	      0.44694702	      0.37267453	      0.18578355	      0.71735840	      0.48139865	     -0.13340724	      0.76520886	      0.42342331	     -0.08913898	      0.69167950	      0.44061951	     -0.14007230	      0.32687451	      0.07273512	      0.09125423	      0.46958401	      0.07722130	      0.06120311	      0.46150449	      0.06318208	      0.16752832	      0.61363440	      0.04733499	      0.10486761	      0.59750043	      0.11596716	     -0.04163855	      0.76656946	      0.09884414	     -0.03768872	      0.73763934	      0.09446259	     -0.13161551	      0.86990985	      0.06358643	     -0.07949869	      0.63776697	      1.38756250	      0.03766171	      0.54089844	      1.47152637	      0.25262575	      0.55381360	      1.49621338	     -0.16688460	      0.57804254	      1.26946973	      0.29756631	      0.54309113	      1.26077405	     -0.20677545	      0.55491675	      1.16159937	      0.33014691	      0.47940289	      1.17270447	     -0.24215622	      0.76087390	      0.99385706	      0.29059573	      0.73489441	      0.96399280	      0.34187085	      0.58589355	      0.94323712	     -0.20824480	      0.53612848	      0.93321973	     -0.26413370	      0.54892169	      0.03812010	      0.18442957	      0.55806763	      0.04563967	      0.07350704	      0.79517969	      0.06235759	     -0.14763487	      0.82412457	      0.06638239	     -0.04890673	      0.67959021	      1.63811731	      0.12542840	      0.68659241	      1.64509497	     -0.01431841	      0.62349683	      1.80517798	      0.06402469	     -6.51607610	    637.07253854	    -36.20631420	      0.53081812	     -0.00750000	      0.12820172	      0.00000000	      0.00000000	      0.00000000	      0.61400644	     -0.00750000	     -0.04785819	      0.00000000	      3.52433533	      0.00000000	      0.00000000	      0.00000000	      0.00000000
